<svg width="1500" height="1500" viewBox="0 0 1500 1500" fill="none" xmlns="http://www.w3.org/2000/svg">
<rect width="1500" height="1500" fill="#F3EBE6"/>
<path d="M712.338 1044.61C721.141 958.611 738.466 706.785 644.33 671.007C638.786 668.899 632.729 668.257 626.834 668.908C606.943 671.105 593.907 680.295 587.241 686.429C583.455 689.912 581.396 694.703 579.751 699.578C556.934 767.19 456.238 823.509 409.273 846.625C400.963 850.715 402.072 861.993 411.264 863.126C448.844 867.756 520.823 866.198 587.717 805.83C593.924 800.229 603.998 803.477 604.689 811.809C609.213 866.372 613.966 1018.56 541.091 1126.1C529.603 1143.05 529.412 1166.04 543.17 1181.21L595.677 1239.11C658.651 1295.5 953.933 1128.58 1019.32 839.855C1092.92 514.882 889.641 348.127 778.437 283.188C768.354 277.301 758.595 292.098 766.541 300.653C836.933 376.44 944.046 536.495 895.663 775.568C872.926 887.917 772.605 1005.67 729.181 1052.42C722.706 1059.39 711.369 1054.07 712.338 1044.61Z" fill="url(#paint0_radial_8_61)"/>
<defs>
<radialGradient id="paint0_radial_8_61" cx="0" cy="0" r="1" gradientUnits="userSpaceOnUse" gradientTransform="translate(556.5 1165) rotate(-74.3553) scale(889.971 578.481)">
<stop offset="0.55882" stop-color="#180600"/>
<stop offset="1" stop-color="#9100FF"/>
</radialGradient>
</defs>
</svg>
