<svg width="118" height="90" viewBox="0 0 118 90" fill="none" xmlns="http://www.w3.org/2000/svg">
<g clip-path="url(#clip0_142_1351)">
<path d="M75.6112 0C74.458 2.05997 73.4226 4.191 72.4813 6.36938C63.5389 5.01975 54.4318 5.01975 45.4658 6.36938C44.5481 4.191 43.4891 2.05997 42.336 0C33.9348 1.44441 25.7454 3.97791 17.9797 7.55325C2.58933 30.4972 -1.57595 52.8492 0.494951 74.8934C9.50791 81.5943 19.6035 86.7087 30.3579 89.9763C32.7817 86.7087 34.9232 83.2281 36.7588 79.6054C33.2759 78.3031 29.9107 76.6693 26.6868 74.7751C27.5339 74.1594 28.3576 73.5202 29.1577 72.9045C48.0544 81.8548 69.9398 81.8548 88.86 72.9045C89.6601 73.5675 90.4838 74.2068 91.3309 74.7751C88.107 76.6929 84.7418 78.3031 81.2355 79.6291C83.071 83.2518 85.2124 86.7324 87.6364 90C98.3905 86.7324 108.486 81.6416 117.5 74.9408C119.946 49.3686 113.311 27.206 99.967 7.57697C92.2252 4.00163 84.0358 1.46803 75.6347 0.0473438L75.6112 0ZM39.3944 61.326C33.5819 61.326 28.7577 56.0221 28.7577 49.4633C28.7577 42.9046 33.3936 37.577 39.3709 37.577C45.3483 37.577 50.1017 42.9282 50.0076 49.4633C49.9135 55.9985 45.3247 61.326 39.3944 61.326ZM78.5998 61.326C72.7637 61.326 67.9866 56.0221 67.9866 49.4633C67.9866 42.9046 72.6225 37.577 78.5998 37.577C84.5772 37.577 89.3072 42.9282 89.213 49.4633C89.1189 55.9985 84.53 61.326 78.5998 61.326Z" fill="#5865F2"/>
</g>
<defs>
<clipPath id="clip0_142_1351">
<rect width="118" height="90" fill="white"/>
</clipPath>
</defs>
</svg>
